<svg width="100" height="27" viewBox="0 0 100 27" fill="none" xmlns="http://www.w3.org/2000/svg">
  <path
    d="M8.9023 22.5035L0.0453164 13.7125C0.0111196 13.8823 -0.036756 14.6086 0.0453164 16.1564C0.127389 17.7041 0.945833 19.3582 1.3448 19.9918C1.61837 20.3878 2.52117 21.4445 3.94376 22.5035C5.36635 23.5625 7.8422 23.9178 8.9023 23.963V22.5035Z"
    fill="#2CFC81" />
  <path
    d="M10.0992 22.5035L18.9562 13.7125C18.9904 13.8823 19.0383 14.6086 18.9562 16.1564C18.8741 17.7041 18.0557 19.3582 17.6567 19.9918C17.3831 20.3878 16.4803 21.4445 15.0578 22.5035C13.6352 23.5625 11.1593 23.9178 10.0992 23.963V22.5035Z"
    fill="#2CFC81" />
  <path
    d="M0.21631 12.3548L8.90231 20.9761V12.8979L2.5417 6.58469C1.00968 8.72982 0.353098 11.3252 0.21631 12.3548Z"
    fill="#2CFC81" />
  <path
    d="M18.7852 12.3548L10.0992 20.9761V12.8979L16.4598 6.58469C17.9918 8.72982 18.6484 11.3252 18.7852 12.3548Z"
    fill="#2CFC81" />
  <path
    d="M3.36242 5.60041L8.90231 11.5063V0.0339263C6.16656 1.50022 4.10335 4.34456 3.36242 5.60041Z"
    fill="#2CFC81" />
  <path d="M15.6391 5.56648L10.0992 11.4724V0C12.835 1.46629 14.8982 4.31063 15.6391 5.56648Z"
    fill="#2CFC81" />
  <path d="M24.2452 24V4.33636H28.066V21.0505H36.7547V24H24.2452Z" fill="white" />
  <path
    d="M38.0457 24V9.84218H41.8665V24H38.0457ZM39.9702 7.90391C39.291 7.90391 38.7249 7.70727 38.2721 7.314C37.8382 6.902 37.6212 6.387 37.6212 5.769C37.6212 5.151 37.8382 4.64536 38.2721 4.25209C38.7249 3.84009 39.291 3.63409 39.9702 3.63409C40.6683 3.63409 41.2344 3.84009 41.6683 4.25209C42.1212 4.64536 42.3476 5.151 42.3476 5.769C42.3476 6.387 42.1212 6.902 41.6683 7.314C41.2344 7.70727 40.6683 7.90391 39.9702 7.90391Z"
    fill="white" />
  <path
    d="M50.1706 24C49.1706 24 48.2933 23.8502 47.5385 23.5505C46.8027 23.2322 46.2272 22.7172 45.8121 22.0055C45.397 21.2752 45.1895 20.2826 45.1895 19.0279V13.0165H42.7555V9.84218H45.1895L45.614 5.99373H49.0102V9.84218H52.7744V13.0165H49.0102V19.0841C49.0102 19.7208 49.1517 20.1609 49.4348 20.4044C49.7178 20.6478 50.1989 20.7695 50.8782 20.7695H52.7461V24H50.1706Z"
    fill="white" />
  <path
    d="M54.0088 24V3.77454H57.8296V11.949C58.3013 11.1999 58.9239 10.61 59.6975 10.1793C60.4899 9.72982 61.405 9.50509 62.4428 9.50509C63.6315 9.50509 64.6315 9.75791 65.4428 10.2635C66.2541 10.7505 66.8673 11.4621 67.2824 12.3985C67.6975 13.3348 67.905 14.4959 67.905 15.8817V24H64.1126V16.2188C64.1126 15.0952 63.8767 14.2337 63.405 13.6345C62.9333 13.0165 62.1881 12.7075 61.1692 12.7075C60.5466 12.7075 59.9805 12.8573 59.4711 13.1569C58.9616 13.4565 58.556 13.8966 58.2541 14.4772C57.9711 15.039 57.8296 15.7132 57.8296 16.4997V24H54.0088Z"
    fill="white" />
  <path
    d="M69.6078 24V9.84218H73.4285V24H69.6078ZM71.5323 7.90391C70.8531 7.90391 70.287 7.70727 69.8342 7.314C69.4002 6.902 69.1833 6.387 69.1833 5.769C69.1833 5.151 69.4002 4.64536 69.8342 4.25209C70.287 3.84009 70.8531 3.63409 71.5323 3.63409C72.2304 3.63409 72.7965 3.84009 73.2304 4.25209C73.6833 4.64536 73.9097 5.151 73.9097 5.769C73.9097 6.387 73.6833 6.902 73.2304 7.314C72.7965 7.70727 72.2304 7.90391 71.5323 7.90391Z"
    fill="white" />
  <path
    d="M80.1195 24.3371C78.9308 24.3371 77.9497 24.1498 77.1761 23.7753C76.4025 23.382 75.827 22.867 75.4497 22.2303C75.0912 21.5748 74.9119 20.8538 74.9119 20.0673C74.9119 19.2058 75.1289 18.4474 75.5629 17.7919C76.0157 17.1365 76.6855 16.6215 77.5723 16.2469C78.478 15.8724 79.6101 15.6851 80.9685 15.6851H84.5063C84.5063 14.9922 84.4119 14.421 84.2233 13.9715C84.0346 13.5034 83.7421 13.1569 83.3459 12.9322C82.9497 12.7075 82.4214 12.5951 81.761 12.5951C81.044 12.5951 80.4308 12.7543 79.9214 13.0726C79.4308 13.3723 79.1289 13.8405 79.0157 14.4772H75.3082C75.4025 13.4659 75.7327 12.5951 76.2987 11.8647C76.8836 11.1156 77.6478 10.5351 78.5912 10.1231C79.5534 9.71109 80.6195 9.50509 81.7893 9.50509C83.1289 9.50509 84.2893 9.72982 85.2704 10.1793C86.2516 10.6287 87.0063 11.2748 87.5346 12.1175C88.0629 12.9603 88.327 13.9996 88.327 15.2356V24H85.1006L84.6761 21.837C84.4685 22.2115 84.2233 22.5486 83.9402 22.8483C83.6572 23.1479 83.327 23.4101 82.9497 23.6348C82.5723 23.8595 82.1478 24.0281 81.6761 24.1405C81.2044 24.2715 80.6855 24.3371 80.1195 24.3371ZM81.0251 21.4156C81.5157 21.4156 81.9497 21.3314 82.327 21.1628C82.7233 20.9755 83.0629 20.7321 83.3459 20.4325C83.6289 20.1141 83.8459 19.7583 83.9968 19.365C84.1666 18.953 84.2799 18.5129 84.3365 18.0447V18.0166H81.4214C80.8365 18.0166 80.3553 18.0915 79.978 18.2414C79.6195 18.3725 79.3553 18.5691 79.1855 18.8313C79.0157 19.0935 78.9308 19.3931 78.9308 19.7302C78.9308 20.1047 79.0157 20.4137 79.1855 20.6572C79.3553 20.9006 79.6006 21.0879 79.9214 21.219C80.2421 21.3501 80.6101 21.4156 81.0251 21.4156Z"
    fill="white" />
  <path
    d="M89.7871 24.0682C89.439 24.0682 89.1597 23.9682 88.949 23.7682C88.7383 23.5591 88.633 23.3045 88.633 23.0045C88.633 22.7045 88.7383 22.4545 88.949 22.2545C89.1597 22.0455 89.439 21.9409 89.7871 21.9409C90.1168 21.9409 90.387 22.0455 90.5976 22.2545C90.8083 22.4545 90.9136 22.7045 90.9136 23.0045C90.9136 23.3045 90.8083 23.5591 90.5976 23.7682C90.387 23.9682 90.1168 24.0682 89.7871 24.0682Z"
    fill="white" />
  <path
    d="M90.1436 27V25.4318H90.7069C91 25.4318 91.2061 25.3727 91.3252 25.2545C91.4534 25.1364 91.5175 24.9455 91.5175 24.6818V17.1273H93.3722V24.6682C93.3722 25.2318 93.2715 25.6818 93.07 26.0182C92.8776 26.3636 92.6029 26.6136 92.2457 26.7682C91.8884 26.9227 91.4671 27 90.9817 27H90.1436ZM92.4517 16.1864C92.1128 16.1864 91.8381 16.0909 91.6274 15.9C91.4167 15.7 91.3114 15.45 91.3114 15.15C91.3114 14.85 91.4167 14.6045 91.6274 14.4136C91.8381 14.2136 92.1128 14.1136 92.4517 14.1136C92.7906 14.1136 93.0654 14.2136 93.2761 14.4136C93.4867 14.6045 93.592 14.85 93.592 15.15C93.592 15.45 93.4867 15.7 93.2761 15.9C93.0654 16.0909 92.7906 16.1864 92.4517 16.1864Z"
    fill="white" />
  <path
    d="M97.0874 24.1636C96.4554 24.1636 95.9058 24.0636 95.4387 23.8636C94.9716 23.6636 94.6052 23.3864 94.3396 23.0318C94.074 22.6773 93.9229 22.2773 93.8863 21.8318H95.7272C95.773 22.0045 95.8509 22.1636 95.9608 22.3091C96.0707 22.4455 96.2173 22.5545 96.4004 22.6364C96.5836 22.7182 96.8034 22.7591 97.0599 22.7591C97.3072 22.7591 97.5087 22.7273 97.6644 22.6636C97.8201 22.5909 97.9346 22.4955 98.0079 22.3773C98.0903 22.2591 98.1315 22.1364 98.1315 22.0091C98.1315 21.8182 98.0766 21.6727 97.9667 21.5727C97.8567 21.4636 97.6965 21.3773 97.4858 21.3136C97.2751 21.25 97.0187 21.1864 96.7164 21.1227C96.3867 21.0591 96.0616 20.9818 95.741 20.8909C95.4296 20.7909 95.1502 20.6682 94.9029 20.5227C94.6556 20.3773 94.4587 20.1909 94.3122 19.9636C94.1656 19.7364 94.0923 19.4545 94.0923 19.1182C94.0923 18.7091 94.2022 18.3455 94.4221 18.0273C94.6419 17.7 94.9625 17.4409 95.3838 17.25C95.8051 17.0591 96.3134 16.9636 96.9088 16.9636C97.7423 16.9636 98.4017 17.15 98.8872 17.5227C99.3726 17.8955 99.6611 18.4091 99.7527 19.0636H98.0079C97.9529 18.8545 97.8293 18.6909 97.6369 18.5727C97.4538 18.4455 97.2064 18.3818 96.895 18.3818C96.5653 18.3818 96.3134 18.4409 96.1394 18.5591C95.9654 18.6773 95.8784 18.8318 95.8784 19.0227C95.8784 19.15 95.9333 19.2636 96.0432 19.3636C96.1623 19.4636 96.3272 19.55 96.5378 19.6227C96.7485 19.6864 97.0049 19.75 97.3072 19.8136C97.8384 19.9227 98.3056 20.05 98.7086 20.1955C99.1116 20.3318 99.4276 20.5318 99.6565 20.7955C99.8855 21.05 100 21.4227 100 21.9136C100 22.35 99.8809 22.7409 99.6428 23.0864C99.4047 23.4227 99.0658 23.6864 98.6261 23.8773C98.1956 24.0682 97.6827 24.1636 97.0874 24.1636Z"
    fill="white" />
</svg>
  